<?xml version="1.0" encoding="utf-8"?>
<!-- Generator: Adobe Illustrator 26.0.3, SVG Export Plug-In . SVG Version: 6.00 Build 0)  -->
<svg version="1.1" id="Layer_1" xmlns="http://www.w3.org/2000/svg" xmlns:xlink="http://www.w3.org/1999/xlink" x="0px" y="0px"
	 viewBox="0 0 1200 274.7" style="enable-background:new 0 0 1200 274.7;" xml:space="preserve">
<style type="text/css">
	.st0{fill-rule:evenodd;clip-rule:evenodd;fill:#FFFFFF;}
	.st1{fill-rule:evenodd;clip-rule:evenodd;}
	.st2{fill-rule:evenodd;clip-rule:evenodd;fill:#00B7B3;}
	.st3{fill-rule:evenodd;clip-rule:evenodd;fill:#4D008C;}
</style>
<path class="st3" d="M1075.7,125.7l-73.8-81.8h-17.8v188.9h49.2v-84l39.8,42h5.4l40.1-42v84h49.2V43.8h-17.2L1075.7,125.7z
	 M614.7,166c47.6-32.3,34.2-121.4-39.8-121.7h-82.6v188.4h23l25.2-55.4h25l32.3,55.4h53.8v-7L614.7,166z M574.8,134.5h-34.5V87.4
	c11.3,0,23.2-0.3,34.5,0C602.3,87.7,600.9,134.5,574.8,134.5 M374,232.8h47.1v-7L336.1,41.9h-20.7l-84.8,183.8v7h47.1l11-23.7H363
	L374,232.8z M347.4,167.9h-43.1l21.3-49.5L347.4,167.9z M55,232.8l25.2-48.2h34.7c90.2,0,90.2-140,0-140.2H32v188.4H55z
	 M114.6,141.3H80.2V87.4c11,0,23.1-0.3,34.5,0C142.6,87.7,141,141.3,114.6,141.3 M866,232.8h47.1v-7L828,41.9h-20.7l-84.8,183.8v7
	h47.1l11-23.7h74.3L866,232.8z M839.3,167.9h-43.1l21.2-49.5L839.3,167.9z"/>
</svg>
